<svg width="153" height="249" viewBox="0 0 153 249" fill="none" xmlns="http://www.w3.org/2000/svg">
<path d="M1.66934 124.229L74.6434 3.0822C75.1663 2.2142 76.5 2.58487 76.5 3.59818V91.3578C76.5 91.7491 76.2718 92.1044 75.916 92.2672L2.94199 125.654C2.04769 126.063 1.1619 125.071 1.66934 124.229Z" fill="#D9D9D9" stroke="black"/>
<path d="M149.563 125.648L77.0817 92.2679C76.7271 92.1046 76.5 91.7499 76.5 91.3596V3.61847C76.5 2.60363 77.837 2.23415 78.3581 3.10497L150.84 124.226C151.345 125.07 150.457 126.059 149.563 125.648Z" fill="#B8B8B8" stroke="black"/>
<path d="M2.15499 127.969L74.9947 170.619C75.6614 171.009 76.5 170.528 76.5 169.756V93.5615C76.5 92.832 75.7442 92.348 75.0817 92.6532L2.24197 126.198C1.50763 126.536 1.45731 127.561 2.15499 127.969Z" fill="#9F9F9F" stroke="black"/>
<path d="M150.845 127.969L78.0053 170.619C77.3386 171.009 76.5 170.528 76.5 169.756V93.5615C76.5 92.832 77.2558 92.348 77.9183 92.6532L150.758 126.198C151.492 126.536 151.543 127.561 150.845 127.969Z" fill="#7D7D7D" stroke="black"/>
<path d="M74.6847 246.444L3.19374 145.793C2.56998 144.914 3.58475 143.806 4.5143 144.35L76.0053 186.21C76.3117 186.39 76.5 186.718 76.5 187.073V245.865C76.5 246.839 75.2489 247.239 74.6847 246.444Z" fill="#D9D9D9" stroke="black"/>
<path d="M78.3153 246.444L149.806 145.793C150.43 144.914 149.415 143.806 148.486 144.35L76.9947 186.21C76.6883 186.39 76.5 186.718 76.5 187.073V245.865C76.5 246.839 77.7511 247.239 78.3153 246.444Z" fill="#7D7D7D" stroke="black"/>
</svg>
